<svg width="34" height="34" fill="none" xmlns="http://www.w3.org/2000/svg"><path d="M32.0012 26.0749c-1.2216-1.2307-4.1801-3.0267-5.6155-3.7506-1.8693-.9415-2.0232-1.0184-3.4924.0731-.98.7284-1.6316 1.3792-2.7785 1.1346-1.147-.2446-3.6394-1.6238-5.8217-3.7991-2.1824-2.1753-3.6417-4.7398-3.887-5.8828-.2454-1.143.4161-1.7869 1.1377-2.7691 1.0169-1.3846.94-1.6153.0707-3.4845-.6777-1.4538-2.5262-4.3844-3.7616-5.5997C6.5313.6914 6.5313.9222 5.6798 1.276a12.3192 12.3192 0 0 0-1.987 1.0592C2.462 3.1528 1.779 3.8321 1.3012 4.8528S.609 8.2665 3.076 12.7478c2.467 4.4814 4.1978 6.7728 7.7802 10.345 3.5824 3.5721 6.337 5.4928 10.3641 7.7512 4.9816 2.7899 6.8924 2.246 7.9163 1.7691 1.0239-.4769 1.7062-1.1538 2.5255-2.3845a12.239 12.239 0 0 0 1.0615-1.9845c.3546-.8484.5854-.8484-.7223-2.1692Z" stroke="#CDA274" stroke-width="2" stroke-miterlimit="10"/></svg>